# xmcd
#
# Track frame offsets: 
#        150
#        11891
#        29897
#        52304
#        71175
#        84483
#        101010
#        116047
#        137473
#        158453
#        171247
#        187438
#        201733
#
# Disc length: 2898 seconds
#
# Revision: 0
# Processed by: cddbd v1.5.1PL2 Copyright (c) Steve Scherf et al.
# Submitted via: ExactAudioCopy v0.95a5
#
DISCID=cd0b500d
DTITLE=Mark Hummel - Ain't Easy No More
DYEAR=2006
DGENRE=Blues
TTITLE0=Get On The Right Track
TTITLE1=She's Got It
TTITLE2=I Didn't Need Another Heartache
TTITLE3=Big Easy (Ain't Easy No More)
TTITLE4=Jump With You Baby
TTITLE5=Harpoventilating
TTITLE6=So Glad
TTITLE7=You Got To Reap
TTITLE8=Creeper Returns
TTITLE9=Stop Now Baby
TTITLE10=I'm To Blame
TTITLE11=Blues Is Here To Stay
TTITLE12=Bird Brain
EXTD=
EXTT0=
EXTT1=
EXTT2=
EXTT3=
EXTT4=
EXTT5=
EXTT6=
EXTT7=
EXTT8=
EXTT9=
EXTT10=
EXTT11=
EXTT12=
PLAYORDER=
